<svg width="123" height="34" viewBox="0 0 123 34" fill="none" xmlns="http://www.w3.org/2000/svg">
<g id="Group">
<path id="Vector" d="M0.755005 21.47V1.35999H6.255V19.66C6.255 22.51 6.595 24.54 7.265 25.78C8.345 27.78 10.475 28.77 13.645 28.77C16.815 28.77 18.935 27.77 20.025 25.78C20.695 24.55 21.035 22.51 21.035 19.66V1.35999H26.535V21.47C26.535 25.4 25.365 28.42 23.015 30.53C20.755 32.53 17.635 33.52 13.645 33.52C9.65501 33.52 6.545 32.52 4.315 30.53C1.945 28.42 0.755005 25.4 0.755005 21.47Z" fill="#333333"/>
<path id="Vector_2" d="M32.125 32.78V1.35999H39.865L48.535 25.96H48.625L57.075 1.35999H64.735V32.78H59.495V8.53999H59.405L50.695 32.78H46.165L37.455 8.53999H37.365V32.78H32.125Z" fill="#333333"/>
<path id="Vector_3" d="M68.775 22.31H74.275C74.275 24.6 75.055 26.33 76.605 27.5C77.985 28.53 79.865 29.04 82.235 29.04C84.495 29.04 86.205 28.54 87.385 27.54C88.385 26.69 88.885 25.6 88.885 24.28C88.885 22.34 88.015 21.05 86.285 20.41C86.045 20.32 82.925 19.46 76.915 17.81C72.285 16.55 69.965 13.89 69.965 9.84998C69.965 6.88998 71.165 4.55998 73.575 2.84998C75.715 1.34998 78.345 0.609985 81.455 0.609985C84.885 0.609985 87.715 1.45999 89.945 3.15999C92.325 5.00999 93.505 7.49998 93.505 10.64H88.005C87.775 6.93998 85.515 5.09998 81.225 5.09998C79.695 5.09998 78.425 5.37999 77.395 5.93999C76.105 6.66999 75.455 7.75998 75.455 9.19998C75.455 11.22 76.705 12.57 79.195 13.23C81.685 13.89 84.705 14.7 88.255 15.67C90.215 16.26 91.755 17.34 92.875 18.93C93.875 20.37 94.375 21.95 94.375 23.68C94.375 26.97 93.075 29.49 90.455 31.25C88.195 32.78 85.335 33.54 81.875 33.54C78.065 33.54 74.995 32.65 72.675 30.86C70.145 28.88 68.835 26.03 68.775 22.31Z" fill="#333333"/>
<path id="Vector_4" d="M96.625 22.31H102.125C102.125 24.6 102.905 26.33 104.455 27.5C105.835 28.53 107.715 29.04 110.085 29.04C112.345 29.04 114.055 28.54 115.235 27.54C116.235 26.69 116.735 25.6 116.735 24.28C116.735 22.34 115.865 21.05 114.135 20.41C113.895 20.32 110.775 19.46 104.765 17.81C100.135 16.55 97.815 13.89 97.815 9.84998C97.815 6.88998 99.015 4.55998 101.425 2.84998C103.565 1.34998 106.195 0.609985 109.305 0.609985C112.735 0.609985 115.565 1.45999 117.795 3.15999C120.175 5.00999 121.355 7.49998 121.355 10.64H115.855C115.625 6.93998 113.365 5.09998 109.075 5.09998C107.545 5.09998 106.275 5.37999 105.245 5.93999C103.955 6.66999 103.305 7.75998 103.305 9.19998C103.305 11.22 104.555 12.57 107.045 13.23C109.535 13.89 112.555 14.7 116.105 15.67C118.065 16.26 119.605 17.34 120.725 18.93C121.725 20.37 122.225 21.95 122.225 23.68C122.225 26.97 120.925 29.49 118.305 31.25C116.045 32.78 113.185 33.54 109.725 33.54C105.915 33.54 102.845 32.65 100.525 30.86C97.995 28.88 96.685 26.03 96.625 22.31Z" fill="#333333"/>
</g>
</svg>
