<svg width="151" height="86" viewBox="0 0 151 86" fill="none" xmlns="http://www.w3.org/2000/svg">
<path d="M71.965 71.94C69.435 74.14 66.245 75.35 63.165 76.56C56.345 79.2 49.415 81.84 42.485 84.37C40.285 85.25 37.755 86.13 35.555 85.14C33.355 84.26 32.255 81.84 31.265 79.64C29.725 76.01 28.295 72.49 26.755 68.86C25.985 67.1 25.325 65.34 25.325 63.58C25.435 59.4 29.395 58.41 32.585 57.2C36.875 55.44 41.165 53.79 45.345 52.03C47.765 51.04 50.185 50.16 52.605 49.17C55.685 47.96 58.655 46.75 61.955 46.64C67.895 46.31 73.725 50.16 75.925 55.66C78.125 61.26 76.475 68.09 71.965 71.94Z" fill="#333333"/>
<path d="M37.705 85.68C36.955 85.68 36.215 85.55 35.505 85.23C33.255 84.33 32.145 81.86 31.165 79.68C30.395 77.87 29.645 76.06 28.915 74.3C28.185 72.54 27.425 70.71 26.655 68.89C25.795 66.92 25.215 65.26 25.215 63.57C25.315 59.73 28.645 58.52 31.585 57.45C31.905 57.33 32.225 57.21 32.545 57.1C34.335 56.37 36.155 55.64 37.915 54.94C40.355 53.97 42.875 52.96 45.305 51.94C46.515 51.44 47.755 50.97 48.945 50.51C50.135 50.05 51.365 49.58 52.565 49.08L52.885 48.96C55.905 47.77 58.745 46.65 61.955 46.55C67.875 46.21 73.785 50.04 76.025 55.63C78.235 61.27 76.555 68.16 72.035 72.02C69.575 74.16 66.495 75.37 63.515 76.54L63.205 76.66C55.135 79.78 48.565 82.27 42.525 84.47C40.935 85.09 39.295 85.68 37.705 85.68ZM62.665 46.71C62.435 46.71 62.195 46.72 61.965 46.73C58.795 46.84 55.955 47.95 52.965 49.13L52.645 49.25C51.435 49.74 50.205 50.22 49.025 50.68C47.835 51.14 46.605 51.62 45.395 52.11C42.965 53.13 40.435 54.14 38.005 55.12C36.245 55.82 34.425 56.55 32.635 57.28C32.315 57.4 31.995 57.52 31.675 57.64C28.655 58.74 25.535 59.87 25.435 63.58C25.435 65.23 26.005 66.87 26.855 68.82C27.625 70.64 28.385 72.47 29.115 74.23C29.845 75.98 30.595 77.79 31.365 79.6C32.325 81.74 33.425 84.18 35.605 85.05C37.745 86.01 40.165 85.2 42.465 84.28C48.505 82.07 55.085 79.59 63.145 76.47L63.455 76.35C66.415 75.19 69.485 73.98 71.915 71.87C76.375 68.06 78.025 61.26 75.845 55.7C73.715 50.4 68.255 46.71 62.665 46.71Z" fill="#333333"/>
<path d="M73.675 56.84L72.835 55.02C78.275 52.51 84.445 49.67 88.515 44.81C92.145 40.47 94.045 33.19 90.425 28.22C87.305 23.94 81.455 22.98 77.035 23.52C72.785 24.03 68.685 25.73 64.715 27.38C63.875 27.73 63.035 28.08 62.195 28.41C49.595 33.48 36.315 36.3 22.745 36.8C18.465 36.96 13.935 36.88 9.71499 35.29C5.02499 33.51 1.50499 29.85 0.544995 25.74C-0.765005 20.18 2.535 14.64 6.375 11.61C10.585 8.29001 15.885 6.84001 20.525 5.74001C63.515 -4.45999 109.665 1.78001 150.375 7.29001L150.105 9.27001C109.555 3.78001 63.605 -2.42999 20.985 7.68001C16.555 8.73001 11.505 10.11 7.615 13.18C4.265 15.82 1.38499 20.58 2.49499 25.28C3.31499 28.75 6.35499 31.87 10.435 33.41C14.325 34.88 18.615 34.94 22.685 34.79C36.025 34.29 49.075 31.52 61.465 26.54C62.295 26.21 63.135 25.86 63.965 25.51C68.065 23.81 72.295 22.05 76.815 21.51C81.795 20.91 88.425 22.04 92.055 27.02C96.315 32.86 94.275 41.03 90.055 46.07C85.695 51.3 79.315 54.24 73.675 56.84Z" fill="#333333"/>
</svg>
