<svg width="289" height="102" viewBox="0 0 289 102" fill="none" xmlns="http://www.w3.org/2000/svg">
<path d="M52.965 40.82L41.845 50.92C40.095 48.5 38.215 46.7 36.225 45.53C34.225 44.36 31.885 43.78 29.185 43.78C26.225 43.78 23.885 44.52 22.185 46C20.475 47.49 19.625 49.17 19.625 51.06C19.625 52.36 19.985 53.52 20.705 54.53C21.425 55.54 22.525 56.35 24.005 56.95C25.485 57.55 28.225 58.26 32.225 59.07C38.335 60.33 42.895 61.73 45.895 63.28C48.905 64.83 51.225 67 52.865 69.78C54.505 72.57 55.325 75.71 55.325 79.21C55.325 83.25 54.315 86.91 52.295 90.19C50.275 93.47 47.135 96.11 42.865 98.11C38.595 100.11 33.295 101.11 26.965 101.11C20.675 101.11 15.455 100.17 11.305 98.28C7.145 96.39 3.585 93.83 0.625 90.6L11.605 80.16C14.165 83.12 16.635 85.24 19.015 86.49C21.395 87.75 24.115 88.38 27.165 88.38C30.755 88.38 33.475 87.61 35.315 86.06C37.155 84.51 38.075 82.68 38.075 80.57C38.075 79.22 37.725 78.02 37.035 76.97C36.335 75.92 35.385 75.08 34.175 74.48C32.965 73.87 31.005 73.3 28.315 72.76C21.485 71.4 16.465 70 13.255 68.54C10.045 67.08 7.525 64.97 5.715 62.21C3.895 59.45 2.985 56.18 2.985 52.41C2.985 46.35 5.305 41.26 9.955 37.15C14.605 33.04 21.105 30.99 29.455 30.99C35.155 30.99 40.235 32.05 44.675 34.16C47.825 35.63 50.585 37.86 52.965 40.82Z" fill="#CC2838"/>
<path d="M123.325 40.69L111.875 52.34C109.545 49.92 107.275 48.19 105.075 47.15C102.875 46.12 100.475 45.6 97.865 45.6C92.745 45.6 88.445 47.48 84.965 51.22C81.485 54.97 79.745 60.01 79.745 66.34C79.745 72.49 81.545 77.47 85.135 81.26C88.725 85.05 93.105 86.95 98.275 86.95C101.055 86.95 103.525 86.39 105.685 85.27C107.845 84.15 110.045 82.24 112.285 79.54L123.195 91.6C117.135 98.02 108.755 101.23 98.075 101.23C87.705 101.23 79.255 98.01 72.745 91.56C66.235 85.12 62.975 76.66 62.975 66.2C62.975 55.78 66.295 47.31 72.945 40.77C79.595 34.24 88.165 30.97 98.675 30.97C103.835 30.97 108.545 31.85 112.785 33.6C117.025 35.36 120.535 37.72 123.325 40.69Z" fill="#CC2838"/>
<path d="M196.175 71.47H146.325C147.135 76.9 149.175 81.05 152.455 83.9C155.735 86.75 159.865 88.18 164.845 88.18C167.985 88.18 170.865 87.47 173.465 86.06C176.065 84.65 178.715 82.28 181.415 78.95L193.335 87.91C189.605 92.45 185.365 95.8 180.605 97.98C175.845 100.16 170.165 101.25 163.565 101.25C152.965 101.25 144.555 97.87 138.335 91.11C132.115 84.35 129.005 75.97 129.005 65.95C129.005 55.8 132.245 47.47 138.735 40.96C145.225 34.45 153.525 31.19 163.625 31.19C170.005 31.19 175.735 32.65 180.835 35.57C185.935 38.49 189.785 42.53 192.385 47.69C194.985 52.85 196.295 59.25 196.295 66.89C196.305 67.88 196.265 69.4 196.175 71.47ZM179.335 59.68C179.245 54.88 177.725 51.02 174.785 48.13C171.845 45.24 168.105 43.79 163.575 43.79C159.125 43.79 155.325 45.21 152.155 48.03C148.985 50.85 147.075 54.74 146.395 59.68H179.335Z" fill="#CC2838"/>
<path d="M255.685 40.82L244.575 50.92C242.825 48.5 240.945 46.7 238.955 45.53C236.965 44.36 234.615 43.78 231.915 43.78C228.955 43.78 226.615 44.52 224.915 46C223.205 47.48 222.355 49.17 222.355 51.05C222.355 52.35 222.715 53.51 223.435 54.52C224.155 55.53 225.255 56.34 226.735 56.94C228.215 57.55 230.955 58.25 234.955 59.06C241.065 60.32 245.625 61.72 248.625 63.27C251.625 64.82 253.955 66.99 255.595 69.77C257.235 72.56 258.055 75.7 258.055 79.2C258.055 83.24 257.045 86.9 255.025 90.18C253.005 93.46 249.865 96.1 245.595 98.1C241.325 100.1 236.035 101.1 229.695 101.1C223.405 101.1 218.185 100.16 214.035 98.27C209.885 96.38 206.325 93.82 203.355 90.59L214.335 80.15C216.895 83.11 219.365 85.23 221.745 86.48C224.125 87.74 226.845 88.37 229.895 88.37C233.485 88.37 236.205 87.6 238.045 86.05C239.885 84.5 240.805 82.67 240.805 80.56C240.805 79.21 240.455 78.01 239.765 76.96C239.065 75.91 238.115 75.07 236.905 74.47C235.695 73.86 233.735 73.29 231.045 72.75C224.215 71.4 219.205 70 215.995 68.54C212.785 67.08 210.265 64.97 208.455 62.21C206.635 59.45 205.725 56.18 205.725 52.41C205.725 46.35 208.045 41.26 212.695 37.15C217.345 33.04 223.845 30.99 232.195 30.99C237.895 30.99 242.975 32.05 247.415 34.16C250.545 35.63 253.305 37.86 255.685 40.82Z" fill="#CC2838"/>
<path d="M278.225 0C281.095 0 283.535 1.01 285.535 3.03C287.535 5.05 288.535 7.48 288.535 10.31C288.535 13.18 287.525 15.62 285.505 17.62C283.485 19.62 281.055 20.62 278.235 20.62C275.355 20.62 272.925 19.62 270.925 17.62C268.925 15.62 267.925 13.19 267.925 10.31C267.925 7.48 268.925 5.06 270.925 3.03C272.915 1.01 275.345 0 278.225 0ZM286.505 33.01V99.36H269.935V33.01H286.505Z" fill="#CC2838"/>
</svg>
