<svg width="1280" height="762" viewBox="0 0 1280 762" fill="none" xmlns="http://www.w3.org/2000/svg">
<g clip-path="url(#clip0_101_24)">
<rect x="12" y="1" width="1280" height="762" fill="white"/>
<path d="M1073.56 636.992L1086.85 640.197L1100.13 643.402L1090.72 653.301L1081.29 663.203L1077.43 650.088L1073.56 636.992Z" stroke="#76E2F4" stroke-width="3" stroke-miterlimit="10"/>
<path d="M1047.88 699.356C1049.63 702.687 1048.34 706.81 1045.01 708.56C1041.68 710.31 1037.56 709.026 1035.81 705.696C1034.06 702.365 1035.34 698.241 1038.67 696.491C1042.01 694.732 1046.12 696.019 1047.88 699.356Z" stroke="#615DEC" stroke-width="3" stroke-miterlimit="10"/>
<path d="M1213.88 202.552L1227.16 205.757L1240.45 208.963L1231.03 218.861L1221.6 228.763L1217.74 215.649L1213.88 202.552Z" stroke="#76E2F4" stroke-width="3" stroke-miterlimit="10"/>
<path d="M1188.19 264.916C1189.94 268.247 1188.66 272.371 1185.32 274.121C1181.99 275.87 1177.87 274.587 1176.12 271.256C1174.37 267.925 1175.65 263.801 1178.98 262.052C1182.32 260.293 1186.44 261.579 1188.19 264.916Z" stroke="#615DEC" stroke-width="3" stroke-miterlimit="10"/>
<path d="M1088.35 592.903L1092.08 594.566C1093.93 590.418 1098.79 588.549 1102.93 590.394L1104.6 586.659C1098.38 583.898 1091.12 586.692 1088.35 592.903Z" fill="#615DEC" stroke="#615DEC" stroke-width="1.0005" stroke-miterlimit="4.0021"/>
<path d="M1082.16 590.147L1085.89 591.81C1089.26 584.242 1098.12 580.832 1105.69 584.197L1107.36 580.463C1097.72 576.181 1086.44 580.511 1082.16 590.147Z" fill="#615DEC" stroke="#615DEC" stroke-width="1.0005" stroke-miterlimit="4.0021"/>
<path d="M1090.32 573.754C1083.9 576.201 1078.73 581.11 1075.96 587.391L1079.7 589.054C1084.58 578.061 1097.46 573.115 1108.45 578.001L1110.11 574.266C1103.84 571.461 1096.71 571.277 1090.32 573.754Z" fill="#615DEC" stroke="#615DEC" stroke-width="1.0005" stroke-miterlimit="4.0021"/>
<path d="M1097.51 592.48C1095.71 593.17 1094.82 595.19 1095.51 596.986C1096.2 598.787 1098.22 599.681 1100.01 598.99C1101.81 598.299 1102.71 596.28 1102.02 594.484C1101.33 592.688 1099.31 591.789 1097.51 592.48Z" fill="#615DEC" stroke="#615DEC" stroke-width="1.0005" stroke-miterlimit="4.0021"/>
<path d="M145.528 44L157.021 54.089L168.514 64.178L154.033 69.083L139.543 73.988L142.54 58.985L145.528 44Z" stroke="#76E2F4" stroke-width="3" stroke-miterlimit="10"/>
<path d="M78.838 100.61C78.838 105.533 74.842 109.529 69.919 109.529C64.996 109.529 61 105.533 61 100.61C61 95.6869 64.996 91.6909 69.919 91.6909C74.851 91.6819 78.838 95.6779 78.838 100.61Z" stroke="#615DEC" stroke-width="3" stroke-miterlimit="10"/>
<path d="M84.2777 436.222L88.5819 437.875C90.4169 433.095 95.7802 430.705 100.56 432.54L102.214 428.236C95.0553 425.489 87.0302 429.063 84.2777 436.222Z" fill="#615DEC" stroke="#615DEC" stroke-width="1.0005" stroke-miterlimit="4.0021"/>
<path d="M77.1414 433.48L81.4456 435.134C84.7927 426.412 94.5792 422.051 103.307 425.398L104.96 421.094C93.8543 416.835 81.4003 422.374 77.1414 433.48Z" fill="#615DEC" stroke="#615DEC" stroke-width="1.0005" stroke-miterlimit="4.0021"/>
<path d="M85.3707 414.536C78.2857 417.668 72.7524 423.501 70 430.739L74.3042 432.393C79.1635 419.724 93.3788 413.397 106.042 418.257L107.696 413.952C100.475 411.16 92.433 411.37 85.3707 414.536Z" fill="#615DEC" stroke="#615DEC" stroke-width="1.0005" stroke-miterlimit="4.0021"/>
<path d="M94.5738 435.208C92.5859 436.091 91.6968 438.419 92.5803 440.401C93.4638 442.389 95.7915 443.278 97.7737 442.395C99.7616 441.511 100.651 439.184 99.7672 437.201C98.8837 435.219 96.5617 434.324 94.5738 435.208Z" fill="#615DEC" stroke="#615DEC" stroke-width="1.0005" stroke-miterlimit="4.0021"/>
<path d="M771.533 467L783.026 477.089L794.519 487.178L780.038 492.083L765.548 496.988L768.545 481.985L771.533 467Z" stroke="#76E2F4" stroke-width="3" stroke-miterlimit="10"/>
<path d="M654.778 531.494C654.778 535.571 651.466 538.883 647.389 538.883C643.312 538.883 640 535.571 640 531.494C640 527.417 643.312 524.105 647.389 524.105C651.466 524.105 654.778 527.417 654.778 531.494Z" stroke="#301781" stroke-width="3"/>
<path d="M709.826 545.222L714.13 546.875C715.965 542.095 721.328 539.705 726.108 541.54L727.762 537.236C720.603 534.489 712.578 538.063 709.826 545.222Z" fill="#615DEC" stroke="#615DEC" stroke-width="1.0005" stroke-miterlimit="4.0021"/>
<path d="M702.689 542.48L706.994 544.134C710.341 535.412 720.127 531.051 728.855 534.398L730.508 530.094C719.402 525.835 706.948 531.374 702.689 542.48Z" fill="#615DEC" stroke="#615DEC" stroke-width="1.0005" stroke-miterlimit="4.0021"/>
<path d="M710.919 523.536C703.834 526.668 698.3 532.501 695.548 539.739L699.852 541.393C704.711 528.724 718.927 522.397 731.59 527.257L733.244 522.952C726.023 520.16 717.981 520.37 710.919 523.536Z" fill="#615DEC" stroke="#615DEC" stroke-width="1.0005" stroke-miterlimit="4.0021"/>
<path d="M720.122 544.208C718.134 545.091 717.245 547.419 718.128 549.401C719.012 551.389 721.339 552.278 723.322 551.395C725.31 550.511 726.199 548.184 725.315 546.201C724.432 544.219 722.11 543.324 720.122 544.208Z" fill="#615DEC" stroke="#615DEC" stroke-width="1.0005" stroke-miterlimit="4.0021"/>
<path d="M1141.33 92.7834L1138.25 77.8028L1135.18 62.8222L1149.68 67.6502L1164.2 72.4837L1152.75 82.638L1141.33 92.7834Z" stroke="#76E2F4" stroke-width="3" stroke-miterlimit="10"/>
<path d="M1041.92 161.478L1040.32 174.704L1038.72 187.93L1050.97 182.7L1063.23 177.464L1052.57 169.467L1041.92 161.478Z" stroke="#76E2F4" stroke-width="3" stroke-miterlimit="10"/>
<path d="M1137.09 197.159C1139.46 199.805 1143.54 200.03 1146.18 197.661C1148.83 195.292 1149.06 191.218 1146.69 188.572C1144.32 185.926 1140.24 185.7 1137.6 188.069C1134.95 190.438 1134.73 194.512 1137.09 197.159Z" stroke="#301781" stroke-width="3"/>
<path d="M960.446 51.7834L957.371 36.8028L954.295 21.8222L968.802 26.6502L983.316 31.4837L971.872 41.638L960.446 51.7834Z" stroke="#76E2F4" stroke-width="3" stroke-miterlimit="10"/>
<path d="M942.812 208.894C947.241 211.044 949.092 216.384 946.942 220.812C944.793 225.241 939.453 227.092 935.024 224.942C930.595 222.793 928.745 217.453 930.894 213.024C933.04 208.583 938.375 206.741 942.812 208.894Z" stroke="#615DEC" stroke-width="3" stroke-miterlimit="10"/>
<path d="M854.24 143.941L852.642 157.167L851.045 170.394L863.294 165.163L875.549 159.928L864.886 151.931L854.24 143.941Z" stroke="#76E2F4" stroke-width="3" stroke-miterlimit="10"/>
<path d="M906.095 137.159C908.464 139.805 912.538 140.03 915.184 137.661C917.83 135.292 918.056 131.218 915.687 128.572C913.318 125.926 909.244 125.7 906.598 128.069C903.951 130.438 903.726 134.512 906.095 137.159Z" stroke="#301781" stroke-width="3"/>
<path d="M902.024 79.648C905.992 78.019 907.889 73.4765 906.26 69.5093C904.631 65.5422 900.089 63.6444 896.122 65.2734C892.154 66.9025 890.257 71.4449 891.886 75.4121C893.51 79.3895 898.05 81.2801 902.024 79.648Z" stroke="#615DEC" stroke-width="3" stroke-miterlimit="10"/>
<path d="M604.446 47.7833L601.371 32.8028L598.295 17.8222L612.802 22.6502L627.316 27.4836L615.872 37.638L604.446 47.7833Z" stroke="#76E2F4" stroke-width="3" stroke-miterlimit="10"/>
<path d="M348.919 102.478L347.322 115.704L345.724 128.93L357.973 123.7L370.228 118.464L359.565 110.467L348.919 102.478Z" stroke="#76E2F4" stroke-width="3" stroke-miterlimit="10"/>
<path d="M511.293 33.3825C513.662 36.0287 517.736 36.254 520.382 33.8851C523.029 31.5162 523.254 27.4421 520.885 24.7959C518.516 22.1497 514.442 21.9244 511.796 24.2933C509.15 26.6622 508.924 30.7363 511.293 33.3825Z" stroke="#301781" stroke-width="3"/>
<path d="M674.09 70.326C678.057 68.6969 679.955 64.1544 678.326 60.1873C676.697 56.2201 672.154 54.3223 668.187 55.9514C664.22 57.5805 662.322 62.1229 663.951 66.09C665.576 70.0674 670.116 71.958 674.09 70.326Z" stroke="#615DEC" stroke-width="3" stroke-miterlimit="10"/>
<path d="M426.702 61.9151C431.599 62.4202 435.164 66.8051 434.659 71.7021C434.154 76.5991 429.769 80.164 424.872 79.6589C419.975 79.1538 416.41 74.7689 416.915 69.8719C417.412 64.965 421.796 61.4091 426.702 61.9151Z" stroke="#615DEC" stroke-width="3" stroke-miterlimit="10"/>
<path d="M237.522 232.251L240.544 245.226L243.567 258.201L253.288 249.097L263.013 239.986L250.259 236.118L237.522 232.251Z" stroke="#76E2F4" stroke-width="3" stroke-miterlimit="10"/>
<path d="M260.435 155.492C263.606 152.605 263.836 147.687 260.948 144.516C258.06 141.346 253.143 141.116 249.972 144.004C246.801 146.891 246.571 151.809 249.459 154.98C252.346 158.161 257.259 158.385 260.435 155.492Z" stroke="#615DEC" stroke-width="3" stroke-miterlimit="10"/>
<path d="M524.446 495.783L521.371 480.803L518.295 465.822L532.802 470.65L547.316 475.484L535.872 485.638L524.446 495.783Z" stroke="#76E2F4" stroke-width="3" stroke-miterlimit="10"/>
<path d="M418.24 587.941L416.642 601.167L415.045 614.394L427.294 609.163L439.549 603.928L428.886 595.931L418.24 587.941Z" stroke="#76E2F4" stroke-width="3" stroke-miterlimit="10"/>
<path d="M470.095 581.159C472.464 583.805 476.538 584.03 479.184 581.661C481.83 579.292 482.056 575.218 479.687 572.572C477.318 569.926 473.244 569.7 470.598 572.069C467.951 574.438 467.726 578.512 470.095 581.159Z" stroke="#301781" stroke-width="3"/>
<path d="M466.024 523.648C469.992 522.019 471.889 517.477 470.26 513.509C468.631 509.542 464.089 507.644 460.122 509.273C456.154 510.903 454.257 515.445 455.886 519.412C457.51 523.39 462.05 525.28 466.024 523.648Z" stroke="#615DEC" stroke-width="3" stroke-miterlimit="10"/>
<path d="M358.954 345.331C363.382 347.481 365.233 352.82 363.083 357.249C360.934 361.678 355.594 363.528 351.165 361.379C346.736 359.229 344.886 353.89 347.035 349.461C349.181 345.02 354.517 343.178 358.954 345.331Z" stroke="#615DEC" stroke-width="3" stroke-miterlimit="10"/>
<path d="M309.095 380.158C311.464 382.805 315.538 383.03 318.184 380.661C320.83 378.292 321.056 374.218 318.687 371.572C316.318 368.926 312.244 368.7 309.598 371.069C306.951 373.438 306.726 377.512 309.095 380.158Z" stroke="#301781" stroke-width="3"/>
<path d="M899.095 666.159C901.464 668.805 905.538 669.03 908.184 666.661C910.83 664.292 911.056 660.218 908.687 657.572C906.318 654.926 902.244 654.701 899.598 657.069C896.951 659.438 896.726 663.512 899.095 666.159Z" stroke="#301781" stroke-width="3"/>
<path d="M864.09 521.326C868.057 519.697 869.955 515.154 868.326 511.187C866.697 507.22 862.154 505.322 858.187 506.951C854.22 508.58 852.322 513.123 853.951 517.09C855.576 521.067 860.116 522.958 864.09 521.326Z" stroke="#615DEC" stroke-width="3" stroke-miterlimit="10"/>
<path d="M1068.89 417.348L1066.39 432.435L1063.9 447.523L1052.08 437.817L1040.27 428.103L1054.59 422.725L1068.89 417.348Z" stroke="#76E2F4" stroke-width="3" stroke-miterlimit="10"/>
<path d="M1066.1 340.702C1062.73 337.108 1062.92 331.46 1066.51 328.095C1070.11 324.731 1075.75 324.917 1079.12 328.511C1082.48 332.105 1082.3 337.753 1078.7 341.118C1075.11 344.495 1069.47 344.302 1066.1 340.702Z" stroke="#615DEC" stroke-width="3" stroke-miterlimit="10"/>
<path d="M1201.07 369.372L1207.3 357.597L1213.53 345.822L1200.22 346.315L1186.91 346.811L1193.99 358.098L1201.07 369.372Z" stroke="#76E2F4" stroke-width="3" stroke-miterlimit="10"/>
<path d="M1150.23 357.121C1148.96 353.802 1145.24 352.131 1141.92 353.394C1138.6 354.658 1136.93 358.38 1138.2 361.7C1139.46 365.019 1143.18 366.69 1146.5 365.426C1149.82 364.163 1151.49 360.44 1150.23 357.121Z" stroke="#301781" stroke-width="3"/>
<path d="M185.218 442.354L171.144 436.37L157.071 430.386L169.289 421.194L181.515 412L183.365 427.187L185.218 442.354Z" stroke="#76E2F4" stroke-width="3" stroke-miterlimit="10"/>
<path d="M203.584 333.184C202.043 328.509 204.588 323.463 209.263 321.922C213.939 320.381 218.985 322.925 220.526 327.601C222.067 332.276 219.523 337.322 214.847 338.863C210.166 340.416 205.128 337.868 203.584 333.184Z" stroke="#615DEC" stroke-width="3" stroke-miterlimit="10"/>
<path d="M211.966 585.825L197.893 579.84L183.819 573.856L196.037 564.665L208.263 555.47L210.113 570.658L211.966 585.825Z" stroke="#76E2F4" stroke-width="3" stroke-miterlimit="10"/>
<path d="M257.584 511.184C256.043 506.509 258.588 501.463 263.263 499.922C267.939 498.381 272.985 500.925 274.526 505.601C276.067 510.276 273.523 515.322 268.847 516.863C264.166 518.416 259.128 515.868 257.584 511.184Z" stroke="#615DEC" stroke-width="3" stroke-miterlimit="10"/>
<path d="M65.966 322.825L51.8926 316.84L37.819 310.856L50.0369 301.665L62.2634 292.47L64.1133 307.658L65.966 322.825Z" stroke="#76E2F4" stroke-width="3" stroke-miterlimit="10"/>
<path d="M113.313 146.644C112.037 142.771 114.145 138.589 118.018 137.313C121.89 136.037 126.072 138.146 127.348 142.018C128.624 145.89 126.516 150.072 122.643 151.348C118.771 152.625 114.589 150.516 113.313 146.644Z" stroke="#301781" stroke-width="3"/>
<path d="M111.584 248.184C110.043 243.509 112.588 238.463 117.263 236.922C121.939 235.381 126.985 237.925 128.526 242.601C130.067 247.276 127.523 252.322 122.847 253.863C118.166 255.416 113.128 252.868 111.584 248.184Z" stroke="#615DEC" stroke-width="3" stroke-miterlimit="10"/>
<path d="M711.348 67.9154L709.293 52.7611L707.238 37.6068L721.385 43.4053L735.539 49.2097L723.434 58.5665L711.348 67.9154Z" stroke="#76E2F4" stroke-width="3" stroke-miterlimit="10"/>
<path d="M778.523 17.0053C781.198 13.9283 785.871 13.6015 788.947 16.2763C792.024 18.9511 792.351 23.6235 789.676 26.7005C787.002 29.7774 782.329 30.1042 779.252 27.4295C776.175 24.7547 775.849 20.0822 778.523 17.0053Z" stroke="#301781" stroke-width="3"/>
<path d="M1053.42 57.0795C1051.5 61.6112 1046.26 63.7282 1041.73 61.8046C1037.19 59.881 1035.08 54.6413 1037 50.1097C1038.92 45.578 1044.16 43.4611 1048.7 45.3847C1053.24 47.3035 1055.35 52.5396 1053.42 57.0795Z" stroke="#615DEC" stroke-width="3" stroke-miterlimit="10"/>
<path d="M818.794 151.531L817.758 156.265C812.502 155.112 807.304 158.438 806.152 163.694L801.419 162.658C803.146 154.787 810.921 149.809 818.794 151.531Z" fill="#615DEC" stroke="#615DEC" stroke-width="1.0005" stroke-miterlimit="4.0021"/>
<path d="M820.513 143.683L819.476 148.417C809.887 146.313 800.403 152.382 798.296 161.976L793.563 160.94C796.244 148.731 808.304 141.002 820.513 143.683Z" fill="#615DEC" stroke="#615DEC" stroke-width="1.0005" stroke-miterlimit="4.0021"/>
<path d="M799.13 139.956C805.974 135.548 814.292 134.063 822.235 135.831L821.198 140.565C807.271 137.507 793.502 146.326 790.447 160.249L785.714 159.213C787.437 151.262 792.269 144.324 799.13 139.956Z" fill="#615DEC" stroke="#615DEC" stroke-width="1.0005" stroke-miterlimit="4.0021"/>
<path d="M811.953 159.982C813.878 158.748 816.435 159.313 817.664 161.234C818.898 163.158 818.333 165.715 816.412 166.944C814.487 168.178 811.93 167.613 810.701 165.692C809.472 163.771 810.029 161.216 811.953 159.982Z" fill="#615DEC" stroke="#615DEC" stroke-width="1.0005" stroke-miterlimit="4.0021"/>
<path d="M294.319 53.4913C291.936 57.6247 293.358 62.9184 297.491 65.3014C301.625 67.6843 306.918 66.2623 309.301 62.1289C311.684 57.9955 310.262 52.7018 306.129 50.3188C301.995 47.9358 296.702 49.3578 294.319 53.4913Z" stroke="#301781" stroke-width="3"/>
<path d="M375.213 173.042C372.336 178.033 374.051 184.42 379.042 187.298C384.034 190.175 390.42 188.46 393.298 183.469C396.175 178.477 394.46 172.091 389.469 169.213C384.474 166.321 378.096 168.042 375.213 173.042Z" stroke="#615DEC" stroke-width="3" stroke-miterlimit="10"/>
<path d="M970.959 323.894C973.525 326.946 977.94 327.206 980.807 324.474C983.674 321.741 983.918 317.041 981.352 313.989C978.785 310.936 974.37 310.676 971.503 313.409C968.636 316.141 968.392 320.841 970.959 323.894Z" stroke="#301781" stroke-width="3"/>
<path d="M62.4552 528.838C67.2541 531.318 69.2589 537.478 66.9298 542.587C64.6008 547.696 58.815 549.831 54.0162 547.351C49.2174 544.871 47.2126 538.711 49.5417 533.602C51.8662 528.479 57.6476 526.354 62.4552 528.838Z" stroke="#615DEC" stroke-width="3" stroke-miterlimit="10"/>
<path d="M8.4325 569.015C10.9992 572.067 15.4136 572.327 18.2808 569.595C21.148 566.862 21.3921 562.162 18.8254 559.11C16.2586 556.057 11.8443 555.797 8.97703 558.53C6.10982 561.262 5.86575 565.962 8.4325 569.015Z" stroke="#301781" stroke-width="3"/>
<path d="M4.02193 502.672C8.32042 500.793 10.3768 495.553 8.61166 490.976C6.84653 486.4 1.92468 484.211 -2.37381 486.09C-6.6723 487.969 -8.72862 493.209 -6.9635 497.786C-5.203 502.374 -0.284412 504.555 4.02193 502.672Z" stroke="#615DEC" stroke-width="3" stroke-miterlimit="10"/>
<path d="M591.812 598.894C596.241 601.044 598.092 606.384 595.942 610.812C593.793 615.241 588.453 617.092 584.024 614.942C579.595 612.793 577.745 607.453 579.894 603.024C582.04 598.583 587.375 596.741 591.812 598.894Z" stroke="#615DEC" stroke-width="3" stroke-miterlimit="10"/>
<path d="M459.24 664.941L457.642 678.167L456.045 691.394L468.294 686.163L480.549 680.928L469.886 672.931L459.24 664.941Z" stroke="#76E2F4" stroke-width="3" stroke-miterlimit="10"/>
<path d="M511.095 658.158C513.464 660.805 517.538 661.03 520.184 658.661C522.83 656.292 523.056 652.218 520.687 649.572C518.318 646.926 514.244 646.7 511.598 649.069C508.951 651.438 508.726 655.512 511.095 658.158Z" stroke="#301781" stroke-width="3"/>
</g>
<defs>
<clipPath id="clip0_101_24">
<rect width="1280" height="762" fill="white"/>
</clipPath>
</defs>
<style>
  .trianimation {   
    width: fit-content;
    height: fit-content;
    animation-name: triangle1;
    animation-duration: 5s;
    position: absolute;
    animation-direction: normal;
    animation-timing-function: linear;
    animation-iteration-count: infinite;
    left: 75%;
    bottom: 20%;
    height: 50px;
  }

  @keyframes triangle1 {
    0% {
      transform: rotate(0deg);
    }
    100% {
      transform: rotate(360deg);
    }
  }
</style>
</svg>
