<svg width="32" height="32" viewBox="0 0 32 32" fill="none" xmlns="http://www.w3.org/2000/svg">
<g clip-path="url(#clip0_1952_1018)">
<path d="M32 16C32 24.8415 24.8465 32 16.0112 32C7.17589 32 0 24.8415 0 16C0 7.15849 7.15347 0 15.9888 0C24.8241 0 32 7.15849 32 16Z" fill="white"/>
<path d="M15.9888 0.56101C24.5102 0.56101 31.417 7.49509 31.417 16C31.417 24.5049 24.4877 31.439 15.9888 31.439C7.48984 31.439 0.560617 24.5049 0.560617 16C0.560617 7.49509 7.48984 0.56101 15.9888 0.56101ZM15.9888 0C7.15347 0 0 7.15849 0 16C0 24.8415 7.15347 32 15.9888 32C24.8241 32 31.9776 24.8415 31.9776 16C32 7.15849 24.8241 0 15.9888 0Z" fill="white"/>
<path d="M7.23862 10.7065L6.24853 11.6058C6.09271 11.3903 5.92532 11.2301 5.74814 11.1259C5.57007 11.0217 5.36172 10.9701 5.12132 10.9701C4.85777 10.9701 4.64943 11.036 4.49806 11.1677C4.34581 11.3004 4.27013 11.45 4.27013 11.6183C4.27013 11.734 4.30218 11.8373 4.36629 11.9272C4.4304 12.0172 4.52834 12.0893 4.66011 12.1427C4.79189 12.1961 5.03585 12.2593 5.39199 12.3315C5.93601 12.4436 6.34202 12.5683 6.60913 12.7063C6.87713 12.8443 7.08369 13.0375 7.22971 13.285C7.37573 13.5334 7.44874 13.813 7.44874 14.1247C7.44874 14.4844 7.35882 14.8102 7.17896 15.1023C6.99911 15.3943 6.71953 15.6294 6.33935 15.8074C5.95916 15.9855 5.48726 16.0746 4.92366 16.0746C4.36362 16.0746 3.89885 15.9909 3.52934 15.8226C3.15895 15.6543 2.84198 15.4264 2.57843 15.1388L3.55605 14.2092C3.78399 14.4728 4.00391 14.6615 4.21582 14.7728C4.42772 14.885 4.66991 14.9411 4.94147 14.9411C5.26111 14.9411 5.50329 14.8726 5.66712 14.7346C5.83094 14.5965 5.91286 14.4336 5.91286 14.2457C5.91286 14.1255 5.8817 14.0187 5.82026 13.9252C5.75793 13.8317 5.67335 13.7569 5.56562 13.7035C5.45788 13.6492 5.28337 13.5984 5.04386 13.5504C4.43574 13.4293 3.98877 13.3046 3.70297 13.1746C3.41716 13.0446 3.19278 12.8568 3.03163 12.611C2.86958 12.3653 2.78856 12.0741 2.78856 11.7385C2.78856 11.1989 2.99512 10.7457 3.40914 10.3798C3.82316 10.0138 4.4019 9.8313 5.14536 9.8313C5.65287 9.8313 6.10518 9.92568 6.5005 10.1135C6.78097 10.2444 7.02671 10.443 7.23862 10.7065Z" fill="#CC2838"/>
<path d="M13.5033 10.695L12.4838 11.7323C12.2763 11.5168 12.0742 11.3628 11.8783 11.2702C11.6825 11.1785 11.4688 11.1322 11.2364 11.1322C10.7805 11.1322 10.3977 11.2996 10.0878 11.6326C9.77795 11.9665 9.62303 12.4152 9.62303 12.9788C9.62303 13.5264 9.7833 13.9698 10.1029 14.3073C10.4226 14.6447 10.8126 14.8139 11.2729 14.8139C11.5204 14.8139 11.7403 14.764 11.9326 14.6643C12.125 14.5646 12.3208 14.3945 12.5203 14.1541L13.4917 15.2279C12.9521 15.7995 12.206 16.0853 11.2551 16.0853C10.3318 16.0853 9.5794 15.7986 8.99977 15.2243C8.42014 14.6509 8.12988 13.8977 8.12988 12.9664C8.12988 12.0386 8.42549 11.2845 9.01758 10.7022C9.60967 10.1207 10.3727 9.82959 11.3085 9.82959C11.7679 9.82959 12.1873 9.90794 12.5648 10.0638C12.9423 10.2205 13.2548 10.4306 13.5033 10.695Z" fill="#CC2838"/>
<path d="M19.9896 13.4355H15.5511C15.6232 13.919 15.8048 14.2885 16.0969 14.5423C16.3889 14.796 16.7566 14.9233 17.2001 14.9233C17.4796 14.9233 17.7361 14.8601 17.9675 14.7346C18.199 14.609 18.435 14.398 18.6754 14.1015L19.7367 14.8993C19.4046 15.3035 19.0271 15.6018 18.6033 15.7959C18.1795 15.99 17.6737 16.087 17.0861 16.087C16.1423 16.087 15.3935 15.7861 14.8397 15.1842C14.2859 14.5823 14.009 13.8362 14.009 12.944C14.009 12.0403 14.2975 11.2986 14.8753 10.719C15.4531 10.1394 16.1922 9.84912 17.0914 9.84912C17.6595 9.84912 18.1697 9.97911 18.6238 10.2391C19.0778 10.4991 19.4206 10.8588 19.6521 11.3182C19.8836 11.7777 20.0003 12.3475 20.0003 13.0277C20.0011 13.1159 19.9976 13.2512 19.9896 13.4355ZM18.4902 12.3858C18.4822 11.9584 18.3468 11.6147 18.0851 11.3574C17.8233 11.1001 17.4903 10.971 17.087 10.971C16.6908 10.971 16.3524 11.0974 16.0702 11.3485C15.7879 11.5996 15.6179 11.9459 15.5573 12.3858H18.4902Z" fill="#CC2838"/>
<path d="M25.2881 10.7065L24.2989 11.6058C24.1431 11.3903 23.9757 11.2301 23.7986 11.1259C23.6214 11.0217 23.4121 10.9701 23.1717 10.9701C22.9082 10.9701 22.6998 11.036 22.5485 11.1677C22.3962 11.2995 22.3205 11.45 22.3205 11.6174C22.3205 11.7331 22.3526 11.8364 22.4167 11.9263C22.4808 12.0163 22.5788 12.0884 22.7105 12.1418C22.8423 12.1961 23.0863 12.2584 23.4424 12.3306C23.9864 12.4427 24.3924 12.5674 24.6595 12.7054C24.9267 12.8434 25.1341 13.0366 25.2801 13.2841C25.4261 13.5326 25.4992 13.8121 25.4992 14.1238C25.4992 14.4835 25.4092 14.8093 25.2294 15.1014C25.0495 15.3934 24.7699 15.6285 24.3898 15.8066C24.0096 15.9846 23.5386 16.0737 22.9741 16.0737C22.414 16.0737 21.9493 15.99 21.5798 15.8217C21.2103 15.6534 20.8933 15.4255 20.6288 15.1379L21.6065 14.2083C21.8344 14.4719 22.0543 14.6607 22.2662 14.772C22.4781 14.8841 22.7203 14.9402 22.9919 14.9402C23.3115 14.9402 23.5537 14.8717 23.7175 14.7337C23.8814 14.5957 23.9633 14.4327 23.9633 14.2449C23.9633 14.1247 23.9321 14.0178 23.8707 13.9243C23.8084 13.8308 23.7238 13.756 23.616 13.7026C23.5083 13.6483 23.3338 13.5976 23.0943 13.5495C22.4862 13.4293 22.0401 13.3046 21.7543 13.1746C21.4685 13.0446 21.2441 12.8568 21.0829 12.611C20.9209 12.3653 20.8399 12.0741 20.8399 11.7385C20.8399 11.1989 21.0464 10.7457 21.4605 10.3798C21.8745 10.0138 22.4532 9.8313 23.1967 9.8313C23.7042 9.8313 24.1565 9.92568 24.5518 10.1135C24.8305 10.2444 25.0762 10.443 25.2881 10.7065Z" fill="#CC2838"/>
<path d="M27.2951 7.07202C27.5506 7.07202 27.7679 7.16195 27.9459 7.3418C28.124 7.52166 28.213 7.73802 28.213 7.98999C28.213 8.24553 28.1231 8.46278 27.9433 8.64085C27.7634 8.81892 27.547 8.90796 27.296 8.90796C27.0395 8.90796 26.8232 8.81892 26.6451 8.64085C26.467 8.46278 26.378 8.24642 26.378 7.98999C26.378 7.73802 26.467 7.52255 26.6451 7.3418C26.8223 7.16195 27.0386 7.07202 27.2951 7.07202ZM28.0323 10.0111V15.9187H26.557V10.0111H28.0323Z" fill="#CC2838"/>
<path d="M2.67902 19.134V17.3435H3.16872V18.9729C3.16872 19.2266 3.19899 19.4074 3.25865 19.5178C3.35481 19.6959 3.54445 19.784 3.8267 19.784C4.10895 19.784 4.29771 19.695 4.39476 19.5178C4.45441 19.4083 4.48468 19.2266 4.48468 18.9729V17.3435H4.97439V19.134C4.97439 19.484 4.87021 19.7528 4.66098 19.9407C4.45975 20.1188 4.18196 20.2069 3.8267 20.2069C3.47144 20.2069 3.19454 20.1179 2.99599 19.9407C2.78497 19.7528 2.67902 19.484 2.67902 19.134Z" fill="#333333"/>
<path d="M5.47211 20.141V17.3435H6.16125L6.9332 19.5338H6.94121L7.69358 17.3435H8.3756V20.141H7.90904V17.9828H7.90103L7.12552 20.141H6.72218L5.94667 17.9828H5.93866V20.141H5.47211V20.141Z" fill="#333333"/>
<path d="M8.73529 19.2087H9.22499C9.22499 19.4126 9.29444 19.5666 9.43245 19.6708C9.55532 19.7625 9.72271 19.8079 9.93373 19.8079C10.1349 19.8079 10.2872 19.7634 10.3923 19.6744C10.4813 19.5987 10.5258 19.5016 10.5258 19.3841C10.5258 19.2114 10.4484 19.0965 10.2943 19.0395C10.273 19.0315 9.99516 18.955 9.46005 18.808C9.04781 18.6959 8.84124 18.459 8.84124 18.0993C8.84124 17.8358 8.94809 17.6283 9.16267 17.4761C9.35321 17.3425 9.58737 17.2766 9.86428 17.2766C10.1697 17.2766 10.4216 17.3523 10.6202 17.5037C10.8321 17.6684 10.9372 17.8901 10.9372 18.1697H10.4475C10.427 17.8402 10.2258 17.6764 9.8438 17.6764C9.70757 17.6764 9.5945 17.7013 9.50279 17.7512C9.38793 17.8162 9.33006 17.9132 9.33006 18.0414C9.33006 18.2213 9.44135 18.3415 9.66305 18.4003C9.88476 18.459 10.1536 18.5311 10.4697 18.6175C10.6442 18.67 10.7814 18.7662 10.8811 18.9078C10.9701 19.036 11.0146 19.1767 11.0146 19.3307C11.0146 19.6236 10.8989 19.848 10.6656 20.0047C10.4644 20.1409 10.2097 20.2086 9.90167 20.2086C9.56244 20.2086 9.2891 20.1294 9.08253 19.97C8.85727 19.7937 8.74063 19.5399 8.73529 19.2087Z" fill="#333333"/>
<path d="M11.215 19.2087H11.7047C11.7047 19.4126 11.7741 19.5666 11.9121 19.6708C12.035 19.7625 12.2024 19.8079 12.4134 19.8079C12.6146 19.8079 12.7669 19.7634 12.8719 19.6744C12.961 19.5987 13.0055 19.5016 13.0055 19.3841C13.0055 19.2114 12.928 19.0965 12.774 19.0395C12.7526 19.0315 12.4748 18.955 11.9397 18.808C11.5275 18.6959 11.3209 18.459 11.3209 18.0993C11.3209 17.8358 11.4278 17.6283 11.6423 17.4761C11.8329 17.3425 12.067 17.2766 12.344 17.2766C12.6493 17.2766 12.9013 17.3523 13.0999 17.5037C13.3118 17.6684 13.4168 17.8901 13.4168 18.1697H12.9271C12.9067 17.8402 12.7054 17.6764 12.3235 17.6764C12.1872 17.6764 12.0742 17.7013 11.9825 17.7512C11.8676 17.8162 11.8097 17.9132 11.8097 18.0414C11.8097 18.2213 11.921 18.3415 12.1427 18.4003C12.3644 18.459 12.6333 18.5311 12.9494 18.6175C13.1239 18.67 13.261 18.7662 13.3608 18.9078C13.4498 19.036 13.4943 19.1767 13.4943 19.3307C13.4943 19.6236 13.3786 19.848 13.1453 20.0047C12.9441 20.1409 12.6894 20.2086 12.3813 20.2086C12.0421 20.2086 11.7688 20.1294 11.5622 19.97C11.3369 19.7937 11.2203 19.5399 11.215 19.2087Z" fill="#333333"/>
<path d="M22.4639 23.7165C22.2386 23.9124 21.9546 24.0202 21.6804 24.1279C21.0731 24.363 20.4561 24.598 19.8391 24.8233C19.6432 24.9016 19.4179 24.98 19.2221 24.8918C19.0262 24.8135 18.9282 24.598 18.8401 24.4021C18.703 24.0789 18.5757 23.7655 18.4385 23.4423C18.37 23.2856 18.3112 23.1289 18.3112 22.9722C18.321 22.6 18.6736 22.5119 18.9576 22.4041C19.3396 22.2474 19.7216 22.1005 20.0937 21.9438C20.3092 21.8557 20.5247 21.7773 20.7401 21.6892C21.0144 21.5814 21.2788 21.4737 21.5726 21.4639C22.1015 21.4345 22.6206 21.7773 22.8165 22.267C23.0124 22.7656 22.8655 23.3738 22.4639 23.7165Z" fill="#333333"/>
<path d="M19.4135 24.94C19.3467 24.94 19.2809 24.9284 19.2176 24.8999C19.0173 24.8198 18.9185 24.5999 18.8312 24.4058C18.7627 24.2446 18.6959 24.0834 18.6309 23.9267C18.5659 23.77 18.4982 23.6071 18.4297 23.445C18.3531 23.2696 18.3015 23.1218 18.3015 22.9714C18.3104 22.6295 18.6068 22.5217 18.8686 22.4265C18.8971 22.4158 18.9256 22.4051 18.9541 22.3953C19.1135 22.3303 19.2755 22.2653 19.4322 22.203C19.6495 22.1166 19.8738 22.0267 20.0902 21.9359C20.1979 21.8914 20.3083 21.8495 20.4143 21.8086C20.5203 21.7676 20.6298 21.7257 20.7366 21.6812L20.7651 21.6705C21.034 21.5646 21.2869 21.4649 21.5727 21.456C22.0998 21.4257 22.626 21.7667 22.8254 22.2644C23.0222 22.7666 22.8726 23.3801 22.4702 23.7237C22.2511 23.9143 21.9769 24.022 21.7116 24.1262L21.684 24.1369C20.9654 24.4147 20.3805 24.6364 19.8427 24.8322C19.7011 24.8874 19.5551 24.94 19.4135 24.94ZM21.6359 21.4702C21.6154 21.4702 21.594 21.4711 21.5736 21.472C21.2913 21.4818 21.0384 21.5806 20.7722 21.6857L20.7437 21.6964C20.636 21.74 20.5265 21.7827 20.4214 21.8237C20.3155 21.8646 20.206 21.9074 20.0982 21.951C19.8819 22.0418 19.6566 22.1318 19.4402 22.219C19.2835 22.2813 19.1215 22.3463 18.9621 22.4113C18.9336 22.422 18.9051 22.4327 18.8766 22.4434C18.6077 22.5413 18.3299 22.6419 18.321 22.9723C18.321 23.1192 18.3718 23.2652 18.4475 23.4388C18.516 23.6009 18.5837 23.7638 18.6487 23.9205C18.7137 24.0763 18.7805 24.2375 18.849 24.3986C18.9345 24.5892 19.0324 24.8064 19.2265 24.8839C19.4171 24.9694 19.6326 24.8972 19.8373 24.8153C20.3751 24.6186 20.961 24.3977 21.6786 24.1199L21.7062 24.1093C21.9698 24.006 22.2431 23.8982 22.4595 23.7104C22.8566 23.3711 23.0035 22.7657 22.8094 22.2707C22.6197 21.7988 22.1336 21.4702 21.6359 21.4702Z" fill="#333333"/>
<path d="M22.6162 22.372L22.5414 22.21C23.0258 21.9865 23.5751 21.7336 23.9375 21.3009C24.2607 20.9145 24.4299 20.2663 24.1076 19.8238C23.8298 19.4427 23.3089 19.3572 22.9154 19.4053C22.5369 19.4507 22.1719 19.6021 21.8184 19.749C21.7436 19.7802 21.6688 19.8113 21.594 19.8407C20.4722 20.2921 19.2898 20.5432 18.0815 20.5877C17.7005 20.602 17.2971 20.5949 16.9214 20.4533C16.5038 20.2948 16.1904 19.9689 16.1049 19.603C15.9883 19.1079 16.2821 18.6147 16.624 18.3449C16.9989 18.0493 17.4708 17.9202 17.8839 17.8222C21.7116 16.9141 25.8206 17.4697 29.4453 17.9603L29.4213 18.1365C25.8108 17.6477 21.7196 17.0948 17.9248 17.995C17.5304 18.0885 17.0808 18.2113 16.7344 18.4847C16.4361 18.7197 16.1797 19.1436 16.2785 19.562C16.3516 19.871 16.6222 20.1488 16.9855 20.2859C17.3319 20.4168 17.7138 20.4221 18.0762 20.4088C19.264 20.3642 20.4259 20.1176 21.5291 19.6742C21.603 19.6448 21.6777 19.6137 21.7516 19.5825C22.1167 19.4311 22.4933 19.2744 22.8958 19.2264C23.3392 19.1729 23.9295 19.2735 24.2527 19.717C24.632 20.2369 24.4503 20.9644 24.0746 21.4131C23.6864 21.8788 23.1184 22.1405 22.6162 22.372Z" fill="#333333"/>
</g>
<defs>
<clipPath id="clip0_1952_1018">
<rect width="32" height="32" fill="white"/>
</clipPath>
</defs>
</svg>
